<svg xmlns="http://www.w3.org/2000/svg" viewBox="0 0 148 132" fill="#8867c8"><path d="M144.2 36.9c-.3.5-.2 1.1-.2 1.7-1.2 16-7.2 30.1-17.2 42.6-10.3 12.8-23.4 21.8-39 26.9-7.1 2.3-14.5 3.6-22 3.8-3.5.1-6.9.1-10.4-.2-7.8-.7-14.7-3.6-20.7-8.5-5.8-4.7-9.9-10.6-11.7-17.9-2.6-10.4-.5-20 5.8-28.6C34.4 49 42.1 44.3 51.6 43c10.8-1.6 20.4 1.4 28.6 8.8 6.4 5.8 10 13.1 11.1 21.6.4 2.9.5 5.9-.4 8.8-.7 2.3-1.9 4.3-4.2 5.3-4.2 1.9-9-.5-10.2-4.9-.4-1.3-.5-2.6-.5-4V64.4c0-5.3-3.9-9.2-9.2-9.2H55.1c-10.8 0-19.8 7.7-21.4 18.4S39.5 95 50.3 97.3c7.9 1.7 14.5-.7 20.1-6.4.2-.2.4-.5.6-.8.8 1.2 1.7 2.3 2.7 3.2 5.4 4.7 16.6 6.1 22.9-3.2 2.6-3.8 3.6-8.1 3.5-12.7-.2-6.8-1.6-13.3-4.6-19.4-4.2-8.5-10.5-15-18.9-19.5-6.9-3.7-14.4-5.3-22.2-4.9-9.9.5-18.6 4-26.1 10.4-7.8 6.8-12.8 15.3-14.5 25.5-2.3 13.4 1 25.4 9.9 35.7 6.9 8 15.7 12.7 26 14.6 5.5 1 11.1 1.1 16.7.8 16.4-.9 31.5-5.5 45.4-14.3.2-.2.6-.6.8-.3.3.4-.2.6-.4.8-5.4 5.7-11.5 10.5-18.5 14.2s-14.4 6.1-22.2 7.4c-4.6.8-9.3 1.1-14 1.2-11.1.2-21.4-2.3-30.7-8.4-11.1-7.3-18.1-17.5-21.5-30.3C3.9 84.8 3.4 78.6 4 72.4 5 60.9 9.4 50.7 17 42c7.9-9 17.8-14.5 29.5-16.8a46.04 46.04 0 0 1 9.1-.9c6.3 0 12.6.2 18.8-.1 10.2-.4 19.3-4 27.2-10.4 1.6-1.3 3.1-2.7 4.6-4.3.3-.3.6-.7 1.1-.5.6.2.4.8.4 1.2-.6 5.2-2 10.3-4.2 15-.8 1.8-1.8 3.4-2.8 5.1-.2.2-.3.5-.1.8s.5.3.8.2c6.7-1.8 13.1-4.4 18.7-8.6 5-3.7 8.9-8.4 12.2-13.6 1.2-1.9 2.4-3.9 3.4-5.9.2-.4.5-.8 1-.9.6 0 .8.4 1 .9 3.8 7 5.8 14.6 6.4 22.5 0 .6-.1 1.2.2 1.8-.1 3.2-.1 6.3-.1 9.4zM67.6 71.2v6c-.3 6.2-5.1 11.3-11.3 11.9-6.6.7-12.5-3.5-13.9-9.9-1.8-7.9 4.3-15.5 12.4-15.5h11.4c1.3 0 1.5.2 1.5 1.5-.1 1.9-.1 4-.1 6z"/></svg>